<?xml version="1.0" encoding="UTF-8" standalone="no"?>
<svg
   width="90"
   height="90"
   viewBox="0 0 90 90"
   fill="none"
   version="1.1"
   id="svg3"
   sodipodi:docname="logo.svg"
   inkscape:version="1.4 (86a8ad7, 2024-10-11)"
   xmlns:inkscape="http://www.inkscape.org/namespaces/inkscape"
   xmlns:sodipodi="http://sodipodi.sourceforge.net/DTD/sodipodi-0.dtd"
   xmlns="http://www.w3.org/2000/svg"
   xmlns:svg="http://www.w3.org/2000/svg">
  <defs
     id="defs3" />
  <sodipodi:namedview
     id="namedview3"
     pagecolor="#ffffff"
     bordercolor="#000000"
     borderopacity="0.25"
     inkscape:showpageshadow="2"
     inkscape:pageopacity="0.0"
     inkscape:pagecheckerboard="0"
     inkscape:deskcolor="#d1d1d1"
     inkscape:zoom="2.4568966"
     inkscape:cx="-63.698246"
     inkscape:cy="52.708772"
     inkscape:window-width="1920"
     inkscape:window-height="1057"
     inkscape:window-x="1042"
     inkscape:window-y="-8"
     inkscape:window-maximized="1"
     inkscape:current-layer="svg3" />
  <path
     d="M 84.611789,15.492571 C 77.274282,11.156675 67.876914,7.3803647 59.308409,3.1414895 59.02854,3.0008451 58.832915,2.903809 58.724218,2.9196132 54.767469,1.1690053 50.484488,0.22487668 46.024823,0.22807824 c -2.269198,0 -4.413303,0.13765256 -6.446167,0.40334034 C 34.784703,1.2598361 30.607873,2.635316 27.017921,4.7078288 19.378919,8.3336902 11.37835,11.697465 4.9566926,15.492571 0.44819173,18.15592 0.03234644,23.132618 0.33671071,25.248949 1.1520756,30.938462 4.5326632,45.856034 5.2283631,48.825988 c 0.5924028,2.535175 3.0355293,4.435906 5.9840449,4.885969 1.674124,10.306875 5.943393,19.387949 11.949262,25.984089 3.068237,3.363758 6.592745,6.080226 10.451825,7.95592 3.856392,1.875691 8.049476,2.907192 12.411187,2.904265 4.96781,0.0032 9.71526,-1.338154 14.001067,-3.735775 6.432457,-3.601146 11.829682,-9.562679 15.617945,-16.980898 2.584403,-5.057832 4.424328,-10.806853 5.334608,-16.974556 1.695891,-0.88159 2.959541,-2.313398 3.361675,-4.039014 0.695714,-2.969954 4.076472,-17.887526 4.891624,-23.577039 0.304605,-2.116331 -0.11124,-7.093029 -4.619812,-9.756378 z M 66.827972,72.224659 c -2.703984,3.57627 -5.902686,6.442814 -9.419137,8.409071 -3.516592,1.969507 -7.345563,3.04491 -11.384012,3.04491 -3.543731,0 -6.92986,-0.83151 -10.084884,-2.363476 -3.15234,-1.531643 -6.073859,-3.770082 -8.65275,-6.595977 h 0.0028 c -0.739249,-0.806632 -1.443161,-1.669523 -2.119794,-2.572736 0.01626,0.0187 0.0352,0.04065 0.05442,0.05935 C 40.383207,63.233988 53.607144,46.006109 52.650644,26.555561 52.183065,17.117915 48.53615,11.047037 44.185322,7.1426681 c 0.603273,-0.02181 1.212058,-0.037605 1.839784,-0.037605 4.106154,0.00323 7.989685,0.9379274 11.517162,2.6727304 1.413054,0.6940365 2.766459,1.5193355 4.057248,2.4634565 1.097989,3.444992 2.511185,8.093443 4.261212,14.361142 -2.46765,18.143938 3.201246,25.468339 8.916504,26.925024 -1.337292,7.233836 -4.147287,13.670471 -7.94926,18.697247 z"
     fill="#ffffff"
     id="path1"
     style="stroke-width:1.516" />
  <path
     d="m 46.671631,61.814862 c -4.426873,0 -8.016825,3.357416 -8.016825,7.502605 0,4.145187 3.589952,7.502605 8.016825,7.502605 4.427013,0 8.016965,-3.357418 8.016965,-7.502605 0,-4.145189 -3.589952,-7.502605 -8.016965,-7.502605 z"
     fill="#ffffff"
     id="path2"
     style="stroke-width:1.516" />
</svg>
